<mxfile host="Electron" modified="2025-04-21T10:23:00.545Z" agent="Mozilla/5.0 (Windows NT 10.0; Win64; x64) AppleWebKit/537.36 (KHTML, like Gecko) draw.io/24.4.0 Chrome/120.0.6099.109 Electron/28.1.0 Safari/537.36" version="24.4.0" etag="aqU6GpOYeT3l3X_UxGe7" type="device">
  <diagram id="EI1CuxaqwdnplJAj03ed" name="Page-1">
    <mxGraphModel dx="2444" dy="932" grid="1" gridSize="10" guides="1" tooltips="1" connect="1" arrows="1" fold="1" page="1" pageScale="1" pageWidth="850" pageHeight="1100" math="0" shadow="0">
      <root>
        <mxCell id="0" />
        <mxCell id="1" parent="0" />
        <mxCell id="5kMCYWwhx8B76zfxUgw_-5" value="&lt;b&gt;Project manager&lt;/b&gt;&lt;div&gt;Nguyễn Lê Tài Đức&lt;/div&gt;" style="rounded=1;whiteSpace=wrap;html=1;" vertex="1" parent="1">
          <mxGeometry x="360" y="80" width="120" height="60" as="geometry" />
        </mxCell>
        <mxCell id="5kMCYWwhx8B76zfxUgw_-6" value="&lt;div&gt;&lt;b&gt;Analysis Team&lt;/b&gt;&lt;/div&gt;" style="rounded=1;whiteSpace=wrap;html=1;" vertex="1" parent="1">
          <mxGeometry x="-280" y="200" width="120" height="60" as="geometry" />
        </mxCell>
        <mxCell id="5kMCYWwhx8B76zfxUgw_-7" value="&lt;div&gt;&lt;b&gt;Nguyễn Lê Tài Đức (Leader)&lt;/b&gt;&lt;/div&gt;&lt;div&gt;&lt;br&gt;&lt;/div&gt;&lt;div&gt;Lê Bá Thịnh&lt;/div&gt;&lt;div&gt;Nguyễn Phi Long&lt;/div&gt;&lt;div&gt;Lê Quốc Vương&lt;/div&gt;&lt;div&gt;Trần Thanh Nhân&lt;/div&gt;" style="rounded=1;whiteSpace=wrap;html=1;" vertex="1" parent="1">
          <mxGeometry x="-312.5" y="320" width="185" height="110" as="geometry" />
        </mxCell>
        <mxCell id="5kMCYWwhx8B76zfxUgw_-8" value="&lt;div&gt;&lt;b&gt;Design Team&lt;/b&gt;&lt;/div&gt;" style="rounded=1;whiteSpace=wrap;html=1;" vertex="1" parent="1">
          <mxGeometry x="88" y="200" width="120" height="60" as="geometry" />
        </mxCell>
        <mxCell id="5kMCYWwhx8B76zfxUgw_-9" value="&lt;div&gt;&lt;b&gt;Lê Quốc Vương (Leader)&lt;/b&gt;&lt;/div&gt;&lt;div&gt;&lt;br&gt;&lt;/div&gt;&lt;div&gt;Nguyễn Phi Long&lt;/div&gt;" style="rounded=1;whiteSpace=wrap;html=1;" vertex="1" parent="1">
          <mxGeometry x="-64.5" y="440" width="185" height="80" as="geometry" />
        </mxCell>
        <mxCell id="5kMCYWwhx8B76zfxUgw_-11" value="&lt;div&gt;&lt;b&gt;Nguyễn Lê Tài Đức (Leader)&lt;/b&gt;&lt;/div&gt;&lt;div&gt;&lt;br&gt;&lt;/div&gt;&lt;div&gt;Lê Bá Thịnh&lt;/div&gt;" style="rounded=1;whiteSpace=wrap;html=1;" vertex="1" parent="1">
          <mxGeometry x="175.5" y="440" width="185" height="80" as="geometry" />
        </mxCell>
        <mxCell id="5kMCYWwhx8B76zfxUgw_-12" value="&lt;div&gt;&lt;b&gt;UI/UX&lt;/b&gt;&lt;/div&gt;" style="rounded=1;whiteSpace=wrap;html=1;" vertex="1" parent="1">
          <mxGeometry x="-32" y="320" width="120" height="60" as="geometry" />
        </mxCell>
        <mxCell id="5kMCYWwhx8B76zfxUgw_-14" value="&lt;div&gt;&lt;b&gt;Database&lt;/b&gt;&lt;/div&gt;" style="rounded=1;whiteSpace=wrap;html=1;" vertex="1" parent="1">
          <mxGeometry x="208" y="320" width="120" height="60" as="geometry" />
        </mxCell>
        <mxCell id="5kMCYWwhx8B76zfxUgw_-15" value="&lt;div&gt;&lt;b&gt;Development team&lt;/b&gt;&lt;/div&gt;" style="rounded=1;whiteSpace=wrap;html=1;" vertex="1" parent="1">
          <mxGeometry x="693" y="200" width="120" height="60" as="geometry" />
        </mxCell>
        <mxCell id="5kMCYWwhx8B76zfxUgw_-16" value="&lt;div&gt;&lt;b&gt;Front-end&lt;/b&gt;&lt;/div&gt;" style="rounded=1;whiteSpace=wrap;html=1;" vertex="1" parent="1">
          <mxGeometry x="493" y="320" width="120" height="60" as="geometry" />
        </mxCell>
        <mxCell id="5kMCYWwhx8B76zfxUgw_-17" value="&lt;div&gt;&lt;b&gt;Back-end&lt;/b&gt;&lt;/div&gt;" style="rounded=1;whiteSpace=wrap;html=1;" vertex="1" parent="1">
          <mxGeometry x="693" y="320" width="120" height="60" as="geometry" />
        </mxCell>
        <mxCell id="5kMCYWwhx8B76zfxUgw_-18" value="&lt;div&gt;&lt;b&gt;AI&lt;/b&gt;&lt;/div&gt;" style="rounded=1;whiteSpace=wrap;html=1;" vertex="1" parent="1">
          <mxGeometry x="893" y="320" width="120" height="60" as="geometry" />
        </mxCell>
        <mxCell id="5kMCYWwhx8B76zfxUgw_-20" value="&lt;div&gt;&lt;b&gt;Lê Quốc Vương (Leader)&lt;/b&gt;&lt;/div&gt;&lt;div&gt;&lt;br&gt;&lt;/div&gt;&lt;div&gt;Nguyễn Phi Long&lt;/div&gt;&lt;div&gt;Nguyễn Lê Tài Đức&lt;/div&gt;" style="rounded=1;whiteSpace=wrap;html=1;" vertex="1" parent="1">
          <mxGeometry x="460.5" y="440" width="185" height="80" as="geometry" />
        </mxCell>
        <mxCell id="5kMCYWwhx8B76zfxUgw_-22" value="&lt;div&gt;&lt;b&gt;Nguyễn Lê Tài Đức (Leader)&lt;/b&gt;&lt;/div&gt;&lt;div&gt;&lt;br&gt;&lt;/div&gt;&lt;div&gt;Lê Bá Thịnh&lt;/div&gt;" style="rounded=1;whiteSpace=wrap;html=1;" vertex="1" parent="1">
          <mxGeometry x="660.5" y="440" width="185" height="80" as="geometry" />
        </mxCell>
        <mxCell id="5kMCYWwhx8B76zfxUgw_-23" value="&lt;div&gt;&lt;b&gt;Trần Thanh Nhân (Leader)&lt;/b&gt;&lt;/div&gt;" style="rounded=1;whiteSpace=wrap;html=1;" vertex="1" parent="1">
          <mxGeometry x="860.5" y="440" width="185" height="80" as="geometry" />
        </mxCell>
        <mxCell id="5kMCYWwhx8B76zfxUgw_-24" value="&lt;div&gt;&lt;b&gt;Test Team&lt;/b&gt;&lt;/div&gt;" style="rounded=1;whiteSpace=wrap;html=1;" vertex="1" parent="1">
          <mxGeometry x="1110" y="200" width="120" height="60" as="geometry" />
        </mxCell>
        <mxCell id="5kMCYWwhx8B76zfxUgw_-26" value="&lt;div&gt;&lt;b&gt;Trần Thanh Nhân (Leader)&lt;/b&gt;&lt;/div&gt;&lt;div&gt;&lt;b&gt;&lt;br&gt;&lt;/b&gt;&lt;/div&gt;&lt;div&gt;Nguyễn Phi Long&lt;/div&gt;" style="rounded=1;whiteSpace=wrap;html=1;" vertex="1" parent="1">
          <mxGeometry x="1077.5" y="320" width="185" height="80" as="geometry" />
        </mxCell>
        <mxCell id="5kMCYWwhx8B76zfxUgw_-28" value="" style="endArrow=none;html=1;rounded=0;entryX=0.5;entryY=1;entryDx=0;entryDy=0;" edge="1" parent="1" target="5kMCYWwhx8B76zfxUgw_-5">
          <mxGeometry width="50" height="50" relative="1" as="geometry">
            <mxPoint x="420" y="170" as="sourcePoint" />
            <mxPoint x="50" y="300" as="targetPoint" />
          </mxGeometry>
        </mxCell>
        <mxCell id="5kMCYWwhx8B76zfxUgw_-29" value="" style="endArrow=none;html=1;rounded=0;" edge="1" parent="1">
          <mxGeometry width="50" height="50" relative="1" as="geometry">
            <mxPoint x="-220" y="170" as="sourcePoint" />
            <mxPoint x="1170" y="170" as="targetPoint" />
          </mxGeometry>
        </mxCell>
        <mxCell id="5kMCYWwhx8B76zfxUgw_-30" value="" style="endArrow=classic;html=1;rounded=0;entryX=0.5;entryY=0;entryDx=0;entryDy=0;" edge="1" parent="1" target="5kMCYWwhx8B76zfxUgw_-24">
          <mxGeometry width="50" height="50" relative="1" as="geometry">
            <mxPoint x="1170" y="170" as="sourcePoint" />
            <mxPoint x="1110" y="160" as="targetPoint" />
          </mxGeometry>
        </mxCell>
        <mxCell id="5kMCYWwhx8B76zfxUgw_-32" value="" style="endArrow=classic;html=1;rounded=0;entryX=0.5;entryY=0;entryDx=0;entryDy=0;" edge="1" parent="1" target="5kMCYWwhx8B76zfxUgw_-15">
          <mxGeometry width="50" height="50" relative="1" as="geometry">
            <mxPoint x="753" y="170" as="sourcePoint" />
            <mxPoint x="753" y="200" as="targetPoint" />
          </mxGeometry>
        </mxCell>
        <mxCell id="5kMCYWwhx8B76zfxUgw_-34" value="" style="endArrow=classic;html=1;rounded=0;entryX=0.5;entryY=0;entryDx=0;entryDy=0;" edge="1" parent="1" target="5kMCYWwhx8B76zfxUgw_-8">
          <mxGeometry width="50" height="50" relative="1" as="geometry">
            <mxPoint x="148" y="170" as="sourcePoint" />
            <mxPoint x="150" y="200" as="targetPoint" />
          </mxGeometry>
        </mxCell>
        <mxCell id="5kMCYWwhx8B76zfxUgw_-35" value="" style="endArrow=classic;html=1;rounded=0;entryX=0.5;entryY=0;entryDx=0;entryDy=0;" edge="1" parent="1" target="5kMCYWwhx8B76zfxUgw_-6">
          <mxGeometry width="50" height="50" relative="1" as="geometry">
            <mxPoint x="-220" y="170" as="sourcePoint" />
            <mxPoint x="-270" y="190" as="targetPoint" />
          </mxGeometry>
        </mxCell>
        <mxCell id="5kMCYWwhx8B76zfxUgw_-36" value="" style="endArrow=classic;html=1;rounded=0;exitX=0.5;exitY=1;exitDx=0;exitDy=0;entryX=0.5;entryY=0;entryDx=0;entryDy=0;" edge="1" parent="1" source="5kMCYWwhx8B76zfxUgw_-6" target="5kMCYWwhx8B76zfxUgw_-7">
          <mxGeometry width="50" height="50" relative="1" as="geometry">
            <mxPoint x="-241" y="350" as="sourcePoint" />
            <mxPoint x="-221" y="320" as="targetPoint" />
          </mxGeometry>
        </mxCell>
        <mxCell id="5kMCYWwhx8B76zfxUgw_-37" value="" style="endArrow=classic;html=1;rounded=0;entryX=0.5;entryY=0;entryDx=0;entryDy=0;exitX=0.5;exitY=1;exitDx=0;exitDy=0;" edge="1" parent="1" source="5kMCYWwhx8B76zfxUgw_-8" target="5kMCYWwhx8B76zfxUgw_-12">
          <mxGeometry width="50" height="50" relative="1" as="geometry">
            <mxPoint x="8" y="320" as="sourcePoint" />
            <mxPoint x="58" y="270" as="targetPoint" />
            <Array as="points">
              <mxPoint x="148" y="300" />
              <mxPoint x="28" y="300" />
            </Array>
          </mxGeometry>
        </mxCell>
        <mxCell id="5kMCYWwhx8B76zfxUgw_-38" value="" style="endArrow=classic;html=1;rounded=0;exitX=0.5;exitY=1;exitDx=0;exitDy=0;" edge="1" parent="1" source="5kMCYWwhx8B76zfxUgw_-8">
          <mxGeometry width="50" height="50" relative="1" as="geometry">
            <mxPoint x="158" y="270" as="sourcePoint" />
            <mxPoint x="268" y="320" as="targetPoint" />
            <Array as="points">
              <mxPoint x="148" y="300" />
              <mxPoint x="268" y="300" />
            </Array>
          </mxGeometry>
        </mxCell>
        <mxCell id="5kMCYWwhx8B76zfxUgw_-39" value="" style="endArrow=classic;html=1;rounded=0;entryX=0.5;entryY=0;entryDx=0;entryDy=0;exitX=0.5;exitY=1;exitDx=0;exitDy=0;" edge="1" parent="1" source="5kMCYWwhx8B76zfxUgw_-12" target="5kMCYWwhx8B76zfxUgw_-9">
          <mxGeometry width="50" height="50" relative="1" as="geometry">
            <mxPoint x="98" y="360" as="sourcePoint" />
            <mxPoint x="-22" y="420" as="targetPoint" />
            <Array as="points" />
          </mxGeometry>
        </mxCell>
        <mxCell id="5kMCYWwhx8B76zfxUgw_-40" value="" style="endArrow=classic;html=1;rounded=0;entryX=0.5;entryY=0;entryDx=0;entryDy=0;exitX=0.5;exitY=1;exitDx=0;exitDy=0;" edge="1" parent="1" source="5kMCYWwhx8B76zfxUgw_-14" target="5kMCYWwhx8B76zfxUgw_-11">
          <mxGeometry width="50" height="50" relative="1" as="geometry">
            <mxPoint x="278" y="400" as="sourcePoint" />
            <mxPoint x="278" y="460" as="targetPoint" />
            <Array as="points" />
          </mxGeometry>
        </mxCell>
        <mxCell id="5kMCYWwhx8B76zfxUgw_-41" value="" style="endArrow=classic;html=1;rounded=0;entryX=0.5;entryY=0;entryDx=0;entryDy=0;exitX=0.5;exitY=1;exitDx=0;exitDy=0;" edge="1" parent="1" source="5kMCYWwhx8B76zfxUgw_-15" target="5kMCYWwhx8B76zfxUgw_-16">
          <mxGeometry width="50" height="50" relative="1" as="geometry">
            <mxPoint x="603" y="320" as="sourcePoint" />
            <mxPoint x="653" y="270" as="targetPoint" />
            <Array as="points">
              <mxPoint x="753" y="290" />
              <mxPoint x="553" y="290" />
            </Array>
          </mxGeometry>
        </mxCell>
        <mxCell id="5kMCYWwhx8B76zfxUgw_-42" value="" style="endArrow=classic;html=1;rounded=0;entryX=0.5;entryY=0;entryDx=0;entryDy=0;exitX=0.5;exitY=1;exitDx=0;exitDy=0;" edge="1" parent="1" source="5kMCYWwhx8B76zfxUgw_-15" target="5kMCYWwhx8B76zfxUgw_-18">
          <mxGeometry width="50" height="50" relative="1" as="geometry">
            <mxPoint x="763" y="270" as="sourcePoint" />
            <mxPoint x="558" y="330" as="targetPoint" />
            <Array as="points">
              <mxPoint x="753" y="290" />
              <mxPoint x="953" y="290" />
            </Array>
          </mxGeometry>
        </mxCell>
        <mxCell id="5kMCYWwhx8B76zfxUgw_-43" value="" style="endArrow=classic;html=1;rounded=0;entryX=0.5;entryY=0;entryDx=0;entryDy=0;exitX=0.5;exitY=1;exitDx=0;exitDy=0;" edge="1" parent="1" source="5kMCYWwhx8B76zfxUgw_-15" target="5kMCYWwhx8B76zfxUgw_-17">
          <mxGeometry width="50" height="50" relative="1" as="geometry">
            <mxPoint x="713" y="300" as="sourcePoint" />
            <mxPoint x="763" y="250" as="targetPoint" />
          </mxGeometry>
        </mxCell>
        <mxCell id="5kMCYWwhx8B76zfxUgw_-44" value="" style="endArrow=classic;html=1;rounded=0;entryX=0.5;entryY=0;entryDx=0;entryDy=0;exitX=0.5;exitY=1;exitDx=0;exitDy=0;" edge="1" parent="1" source="5kMCYWwhx8B76zfxUgw_-16" target="5kMCYWwhx8B76zfxUgw_-20">
          <mxGeometry width="50" height="50" relative="1" as="geometry">
            <mxPoint x="533" y="430" as="sourcePoint" />
            <mxPoint x="583" y="380" as="targetPoint" />
          </mxGeometry>
        </mxCell>
        <mxCell id="5kMCYWwhx8B76zfxUgw_-45" value="" style="endArrow=classic;html=1;rounded=0;exitX=0.5;exitY=1;exitDx=0;exitDy=0;" edge="1" parent="1" source="5kMCYWwhx8B76zfxUgw_-17">
          <mxGeometry width="50" height="50" relative="1" as="geometry">
            <mxPoint x="743" y="410" as="sourcePoint" />
            <mxPoint x="753" y="440" as="targetPoint" />
          </mxGeometry>
        </mxCell>
        <mxCell id="5kMCYWwhx8B76zfxUgw_-46" value="" style="endArrow=classic;html=1;rounded=0;exitX=0.5;exitY=1;exitDx=0;exitDy=0;" edge="1" parent="1" source="5kMCYWwhx8B76zfxUgw_-18">
          <mxGeometry width="50" height="50" relative="1" as="geometry">
            <mxPoint x="903" y="400" as="sourcePoint" />
            <mxPoint x="953" y="440" as="targetPoint" />
          </mxGeometry>
        </mxCell>
        <mxCell id="5kMCYWwhx8B76zfxUgw_-47" value="" style="endArrow=classic;html=1;rounded=0;entryX=0.5;entryY=0;entryDx=0;entryDy=0;exitX=0.5;exitY=1;exitDx=0;exitDy=0;" edge="1" parent="1" source="5kMCYWwhx8B76zfxUgw_-24" target="5kMCYWwhx8B76zfxUgw_-26">
          <mxGeometry width="50" height="50" relative="1" as="geometry">
            <mxPoint x="1200" y="330" as="sourcePoint" />
            <mxPoint x="1250" y="280" as="targetPoint" />
          </mxGeometry>
        </mxCell>
      </root>
    </mxGraphModel>
  </diagram>
</mxfile>
